<?xml version="1.0" standalone="no"?>
<!DOCTYPE svg PUBLIC "-//W3C//DTD SVG 20010904//EN"
 "http://www.w3.org/TR/2001/REC-SVG-20010904/DTD/svg10.dtd">
<svg version="1.0" xmlns="http://www.w3.org/2000/svg"
 width="5205.000000pt" height="4301.000000pt" viewBox="0 0 5205.000000 4301.000000"
 preserveAspectRatio="xMidYMid meet">

<g transform="translate(0.000000,4301.000000) scale(0.100000,-0.100000)"
fill="#000000" stroke="none">
<path d="M24240 38507 c-3 -2 -101 -7 -219 -11 -118 -4 -235 -9 -260 -11 -25
-2 -93 -7 -151 -10 -233 -13 -607 -48 -880 -81 -91 -11 -128 -20 -137 -31 -17
-21 -16 -35 1 -58 13 -18 20 -18 127 -7 219 23 404 42 454 47 98 10 442 34
565 41 69 3 139 8 155 9 55 7 608 20 815 20 206 0 740 -13 815 -20 22 -2 90
-6 150 -10 225 -12 588 -42 750 -60 803 -91 1479 -211 2195 -389 141 -35 163
-35 175 5 13 41 -17 56 -234 108 -615 149 -1288 273 -1826 336 -77 9 -151 18
-165 20 -42 7 -419 44 -515 50 -49 4 -101 8 -115 10 -14 2 -115 9 -225 15
-110 6 -227 13 -260 15 -80 7 -1209 18 -1215 12z"/>
<path d="M29581 37974 c-208 -55 -351 -242 -351 -459 0 -262 200 -465 460
-467 124 -1 224 37 312 119 156 147 196 382 96 577 -27 54 -121 150 -174 180
-104 58 -239 78 -343 50z m261 -116 c75 -35 142 -103 181 -186 29 -60 32 -76
32 -158 -1 -82 -4 -98 -33 -157 -41 -83 -100 -142 -182 -181 -57 -27 -75 -31
-150 -31 -70 1 -95 5 -140 26 -142 66 -220 188 -221 343 0 107 25 177 92 251
89 96 159 127 284 122 60 -2 94 -10 137 -29z"/>
<path d="M24069 37467 c-2 -3 -96 -8 -209 -12 -113 -4 -207 -8 -210 -10 -3 -1
-59 -5 -125 -9 -66 -4 -142 -9 -170 -11 -27 -3 -129 -12 -225 -20 -601 -53
-1232 -146 -1870 -275 -371 -75 -490 -104 -501 -121 -15 -24 -10 -48 14 -63
20 -13 36 -11 152 15 440 98 954 193 1325 244 63 9 144 20 180 25 239 35 762
87 1105 110 88 6 187 12 220 15 352 26 1427 26 1724 0 25 -2 91 -7 146 -10
619 -37 1407 -139 2035 -264 107 -21 200 -36 207 -34 26 10 35 43 19 67 -13
21 -42 29 -253 70 -582 113 -1315 212 -1788 242 -55 3 -110 7 -122 9 -12 2
-84 6 -160 10 -76 4 -154 9 -173 12 -42 6 -1314 15 -1321 10z"/>
<path d="M43088 35855 c-2 -1 -631 -5 -1398 -9 -2179 -9 -3414 -16 -4185 -21
-390 -3 -1315 -7 -2055 -10 -740 -3 -1500 -7 -1690 -10 -190 -2 -5056 -5
-10815 -5 -7067 0 -10490 -3 -10533 -10 -255 -42 -445 -297 -491 -660 -5 -47
-30 -240 -55 -430 -25 -190 -56 -433 -70 -540 -14 -107 -36 -280 -50 -385 -14
-104 -28 -208 -31 -230 -3 -22 -14 -107 -25 -190 -10 -82 -40 -307 -64 -500
-46 -355 -66 -506 -91 -695 -16 -115 -63 -481 -71 -545 -2 -22 -9 -71 -14
-110 -5 -38 -12 -88 -14 -110 -7 -49 -27 -208 -67 -510 -17 -126 -41 -315 -55
-420 -13 -104 -34 -260 -45 -345 -11 -85 -29 -222 -39 -305 -11 -82 -29 -220
-40 -305 -11 -85 -31 -240 -45 -345 -13 -104 -33 -257 -44 -340 -11 -82 -32
-238 -46 -345 -42 -333 -55 -434 -60 -470 -3 -19 -9 -69 -15 -110 -16 -126
-45 -353 -144 -1110 -52 -399 -100 -765 -106 -815 -6 -49 -13 -103 -15 -120
-2 -16 -9 -64 -14 -105 -6 -41 -13 -93 -16 -115 -2 -22 -20 -159 -39 -305 -20
-146 -47 -355 -61 -465 -14 -110 -32 -252 -41 -315 -14 -110 -26 -196 -58
-450 -9 -63 -22 -169 -31 -235 -9 -66 -18 -136 -20 -155 -2 -19 -13 -102 -24
-185 -11 -82 -29 -220 -40 -305 -31 -243 -91 -702 -96 -735 -2 -16 -15 -118
-29 -225 -14 -107 -37 -280 -50 -385 -14 -104 -37 -280 -51 -390 -14 -110 -30
-231 -35 -270 -5 -38 -18 -142 -30 -230 -12 -88 -27 -209 -35 -270 -24 -187
-103 -794 -147 -1128 -36 -269 -44 -316 -58 -312 -43 13 -263 36 -395 42 -425
17 -847 -97 -1173 -316 -125 -84 -248 -188 -367 -312 -662 -689 -1076 -1607
-1142 -2535 -13 -173 -7 -514 12 -679 69 -623 276 -1218 633 -1815 25 -41 112
-178 195 -305 363 -556 664 -1101 903 -1636 78 -175 227 -541 236 -579 1 -9
-31 -56 -73 -105 -499 -593 -809 -1320 -893 -2095 -14 -131 -20 -231 -26 -483
0 -5 -17 1 -37 13 -217 130 -321 145 -466 67 -112 -59 -177 -161 -185 -288 -4
-73 1 -95 157 -665 202 -742 260 -926 406 -1299 128 -328 340 -763 520 -1070
179 -307 494 -759 695 -1000 209 -252 564 -611 860 -871 1036 -910 2400 -1602
3975 -2018 632 -166 1503 -327 1900 -351 55 -3 118 -7 140 -10 22 -2 76 -7
120 -10 44 -3 202 -14 350 -25 149 -11 306 -22 350 -25 44 -3 105 -7 135 -10
85 -7 174 -14 460 -35 146 -11 312 -23 370 -27 58 -4 150 -7 205 -6 55 1 128
2 161 3 49 1 66 5 80 21 19 21 18 23 -49 147 -518 963 -845 1929 -908 2680
-12 148 -8 541 7 576 5 15 24 -15 80 -133 70 -145 74 -151 103 -151 16 0 33 5
36 11 4 6 22 -13 42 -43 59 -91 125 -137 271 -187 l103 -36 150 -285 c83 -157
193 -368 246 -470 122 -235 186 -345 286 -495 553 -829 1377 -1414 2342 -1660
235 -60 441 -93 715 -116 123 -10 643 -7 995 6 61 2 252 7 425 10 173 3 380 8
460 10 80 2 278 7 440 10 162 3 327 8 365 10 39 2 246 7 460 10 215 3 419 8
455 10 36 2 207 7 380 10 173 3 362 8 420 10 58 2 222 7 365 10 244 5 403 9
755 20 80 3 244 7 365 10 121 3 265 8 320 10 55 2 210 7 345 10 135 4 322 10
415 16 408 22 469 10 709 -138 480 -296 920 -375 1450 -263 126 27 382 112
544 180 149 63 257 128 399 239 l108 84 105 -54 c555 -286 427 -240 1040 -378
195 -44 415 -94 489 -110 137 -31 161 -31 175 5 4 9 0 27 -9 40 -22 35 -761
853 -803 891 -21 18 -88 66 -150 105 -62 40 -186 121 -276 180 l-163 107 -5
78 c-6 97 -38 174 -100 234 -82 80 -279 152 -456 166 -64 5 -85 10 -89 22 -20
67 -60 158 -97 222 -53 90 -175 223 -260 284 -213 151 -509 224 -744 183 l-69
-12 -639 414 c-351 228 -683 442 -736 477 -114 74 -131 81 -220 93 -82 10
-117 33 -158 104 -43 76 -74 101 -342 276 -452 295 -1178 733 -1251 755 -143
42 -329 -11 -410 -119 -32 -41 -290 -479 -335 -567 -91 -179 -35 -400 130
-512 113 -76 919 -556 1018 -606 58 -30 186 -96 284 -148 217 -115 209 -112
304 -119 91 -6 129 -26 172 -90 41 -59 68 -77 260 -176 274 -142 785 -410 789
-414 11 -10 -41 -35 -114 -55 -76 -20 -92 -21 -334 -14 -140 4 -264 8 -275 10
-12 2 -66 6 -121 10 -55 3 -154 10 -220 15 -66 6 -149 12 -185 15 -120 10
-552 50 -635 60 -22 2 -110 11 -195 20 -515 53 -1268 153 -1800 241 -2029 334
-3393 771 -4042 1293 -42 34 -116 103 -165 155 l-89 94 -111 258 c-61 143
-201 468 -311 724 l-200 465 38 170 c65 290 75 367 74 595 0 162 -5 233 -22
338 -81 491 -278 1270 -466 1842 -378 1155 -890 2146 -1452 2816 -440 524
-1313 962 -2559 1284 -356 92 -826 190 -1135 236 -63 9 -118 19 -122 23 -3 3
-9 76 -12 161 -4 85 -9 187 -11 225 -2 39 -7 193 -11 343 -5 209 -3 276 6 287
9 11 34 15 89 15 432 1 733 165 906 493 44 84 93 213 114 302 l12 50 857 -2
c471 -1 2340 -4 4152 -7 1812 -3 3296 -6 3298 -6 1 0 1 -627 -1 -1392 -4
-1525 1 -1407 -63 -1608 -118 -374 -406 -708 -784 -908 -52 -28 -322 -147
-600 -265 -278 -118 -741 -316 -1030 -439 -289 -124 -588 -251 -665 -284 -151
-64 -207 -105 -220 -163 -4 -17 -12 -31 -19 -31 -17 0 -26 -167 -26 -464 0
-185 3 -229 17 -270 21 -58 92 -127 151 -144 30 -9 795 -12 3238 -12 3432 0
3269 -2 3505 50 53 11 148 38 210 59 146 49 3589 1499 3689 1553 286 155 543
416 680 688 57 114 109 271 131 398 18 110 19 175 19 1668 l0 1555 2741 -7
2740 -7 -3 48 -3 49 -40 2 c-22 1 -2130 4 -4685 8 -2555 3 -5324 8 -6155 11
-830 3 -3672 8 -6314 11 l-4803 7 6 36 c20 131 28 298 22 511 l-6 235 942 -2
c519 -2 3204 -5 5968 -8 5123 -5 7924 -10 12498 -21 l2572 -7 0 52 0 51 -1662
0 c-915 0 -2171 3 -2793 5 -621 3 -4818 10 -9325 16 -4507 6 -8201 12 -8207
14 -8 3 -13 21 -13 44 0 36 7 46 108 147 87 87 112 119 125 158 35 102 18 172
-71 295 -27 36 -51 71 -55 78 -4 7 8 37 28 68 83 129 110 255 103 471 -8 207
-53 405 -150 649 -42 106 -61 135 -88 135 -9 0 -73 -29 -143 -65 -69 -36 -127
-62 -129 -58 -2 5 -5 24 -7 43 -4 49 -65 234 -118 360 -44 105 -185 381 -229
452 -13 21 -24 41 -24 46 0 5 52 44 116 87 161 110 214 177 250 318 37 141
-18 314 -174 552 -74 112 -243 289 -356 373 -379 278 -948 420 -1606 398 -107
-4 -206 -8 -220 -10 -14 -2 -65 -7 -115 -11 -285 -20 -760 -106 -1167 -209
-309 -79 -490 -144 -695 -251 -75 -39 -123 -59 -123 -51 0 11 83 657 95 742 2
17 16 120 30 230 14 109 35 269 46 354 11 85 33 256 49 380 16 124 38 293 49
375 11 83 32 238 45 345 27 208 60 459 131 1010 25 190 59 449 75 575 27 207
63 482 75 575 3 19 9 69 15 110 5 41 19 147 30 235 21 156 66 504 96 735 31
241 55 421 79 605 13 105 31 244 40 310 9 66 18 136 20 155 3 19 9 69 15 110
14 114 258 1991 266 2045 2 17 13 102 24 190 12 88 26 194 31 235 5 41 16 125
24 185 8 61 26 198 40 305 51 389 69 525 109 840 9 63 22 169 31 235 9 66 18
136 20 155 2 19 13 103 24 185 11 83 29 220 40 305 11 85 38 292 60 460 22
168 51 393 65 500 14 107 34 263 45 345 11 83 38 292 61 465 22 173 47 367 55
430 9 63 38 288 66 500 27 212 52 403 55 425 26 198 136 389 265 460 l54 30
14480 3 c11012 2 14497 0 14550 -9 280 -46 557 -280 662 -558 66 -175 67 -252
13 -676 -22 -176 -54 -426 -71 -555 -16 -129 -38 -302 -49 -385 -27 -209 -74
-575 -120 -935 -83 -652 -171 -1336 -175 -1366 -2 -16 -25 -192 -50 -390 -25
-197 -59 -465 -76 -594 -42 -329 -73 -575 -99 -785 -13 -99 -26 -184 -30 -188
-4 -4 -47 -16 -96 -27 -49 -10 -156 -37 -238 -60 -99 -28 -152 -38 -158 -32
-6 6 -12 50 -14 99 -8 171 -12 200 -33 240 -11 23 -35 52 -53 65 -29 20 -45
23 -118 23 -70 -1 -113 -9 -250 -48 -287 -81 -494 -123 -655 -133 -128 -8
-173 4 -235 62 -80 75 -138 88 -273 59 -189 -40 -367 -209 -455 -431 -59 -149
-67 -189 -67 -334 0 -127 2 -139 29 -205 21 -48 46 -86 80 -120 71 -70 124
-87 295 -91 73 -2 135 -4 136 -6 2 -2 -32 -73 -74 -159 -78 -159 -87 -173
-320 -455 -81 -97 -77 -118 40 -219 91 -79 85 -55 70 -275 -24 -349 -24 -351
1 -399 13 -25 35 -54 49 -64 15 -11 129 -55 255 -98 125 -43 238 -86 250 -94
13 -8 27 -27 30 -42 7 -27 -90 -689 -107 -733 -5 -14 -19 -36 -30 -49 -19 -23
-30 -25 -147 -32 -466 -29 -986 -109 -1317 -204 -906 -259 -1763 -1104 -2382
-2351 -110 -221 -178 -372 -171 -379 3 -3 142 -25 308 -48 167 -23 305 -47
306 -52 2 -6 93 -335 203 -732 111 -397 201 -724 201 -727 0 -9 -266 -250
-405 -366 -237 -198 -540 -412 -685 -485 -149 -74 -298 -106 -475 -100 -155 4
-259 30 -401 100 -179 87 -220 126 -626 591 -201 231 -666 763 -1033 1184
-881 1010 -861 988 -919 1025 -64 40 -96 51 -208 70 -247 43 -428 164 -525
351 -102 196 -108 363 -18 504 95 150 118 235 90 342 -22 88 -48 128 -170 258
-59 63 -120 137 -136 165 -51 89 -49 184 5 234 l25 24 73 -63 c40 -34 164
-138 274 -231 111 -93 230 -199 264 -236 68 -74 171 -226 270 -398 174 -303
270 -437 411 -569 109 -103 189 -158 554 -383 171 -105 396 -244 500 -308 105
-65 363 -225 575 -355 212 -131 518 -320 680 -420 162 -101 318 -194 346 -207
125 -57 294 -24 391 79 34 36 368 606 360 614 -3 3 -26 6 -52 7 l-47 2 -55
-95 c-30 -52 -98 -169 -150 -260 -52 -91 -111 -182 -130 -202 -51 -53 -123
-81 -193 -76 -65 5 -95 19 -275 131 -71 44 -175 108 -230 142 -55 34 -158 98
-230 142 -342 212 -993 614 -1190 735 -694 427 -693 426 -842 582 -112 115
-175 207 -346 499 -194 331 -251 401 -491 601 -94 79 -227 191 -296 250 -69
59 -135 109 -147 112 -11 3 -42 -3 -67 -14 -83 -37 -136 -157 -116 -262 20
-104 53 -155 215 -329 160 -172 175 -264 68 -424 -121 -180 -128 -379 -24
-602 111 -235 316 -381 610 -434 111 -20 164 -41 212 -83 14 -13 352 -396 750
-853 1654 -1897 1519 -1747 1644 -1837 83 -59 162 -101 265 -139 l75 -28
-1616 -1 c-1297 0 -1619 -3 -1633 -13 -14 -10 -25 -68 -57 -302 -43 -317 -45
-345 -27 -363 9 -9 620 -12 2689 -12 l2678 0 15 22 c13 19 14 25 2 43 l-13 20
-2642 3 c-1452 1 -2641 3 -2641 5 0 1 12 88 26 192 14 105 28 216 31 248 l6
57 2508 0 c2496 0 2509 0 2529 20 24 24 24 29 4 58 l-15 22 -632 0 -632 1 59
20 c104 36 180 74 302 154 285 186 576 416 825 653 l87 83 11 -33 c10 -33 63
-223 341 -1223 78 -280 149 -518 158 -527 11 -13 30 -18 69 -18 l55 0 -6 -83
c-4 -45 -9 -107 -11 -137 -2 -30 -7 -107 -10 -170 -3 -63 -8 -135 -10 -160 -2
-25 -7 -92 -10 -150 -3 -58 -8 -139 -10 -180 -3 -41 -12 -205 -20 -365 -8
-159 -17 -326 -20 -370 -2 -44 -7 -154 -10 -245 -3 -91 -8 -183 -10 -205 -2
-22 -7 -146 -11 -275 -3 -129 -8 -255 -9 -280 -2 -25 -5 -290 -8 -590 -6 -593
1 -874 29 -1160 7 -68 22 -172 26 -176 2 -2 55 -8 118 -14 63 -6 133 -12 155
-15 22 -2 92 -7 155 -11 63 -3 133 -8 155 -10 98 -8 732 -10 850 -3 302 20
549 61 711 119 553 199 1363 349 2095 387 221 12 788 9 934 -5 303 -29 573
-83 779 -155 l98 -35 -6 307 c-4 168 -9 342 -11 386 -2 44 -6 186 -10 315 -6
245 -12 463 -20 735 -6 180 -22 763 -30 1080 -3 116 -7 266 -10 335 -3 69 -7
231 -10 360 -3 129 -8 291 -10 360 -2 69 -7 220 -11 336 l-6 211 188 6 c333
11 482 45 565 127 92 92 178 317 238 621 47 241 92 620 106 889 3 63 8 124 10
135 2 11 7 124 11 250 7 245 7 246 -41 258 -11 2 60 5 158 6 l179 1 -6 168
c-4 92 -9 192 -11 222 -19 217 -28 301 -46 420 -135 905 -456 1634 -943 2137
-350 363 -732 588 -1280 753 -272 82 -591 153 -876 196 l-115 17 -109 86
c-185 145 -197 170 -278 573 -59 297 -60 305 -55 428 7 147 33 246 103 380 64
122 54 115 164 115 102 0 140 13 209 71 l32 27 -6 -24 c-3 -13 -16 -114 -30
-224 -14 -110 -34 -267 -45 -350 -31 -237 -100 -782 -112 -874 -11 -95 -7
-103 51 -99 25 2 35 8 37 23 3 25 47 363 80 625 13 107 26 211 29 230 6 45 93
721 100 780 10 85 17 101 92 223 330 531 448 751 497 921 57 196 11 449 -105
581 -40 45 -64 57 -166 86 -46 12 -83 27 -83 33 0 6 4 38 10 71 8 52 65 493
145 1135 14 107 27 209 30 225 2 17 11 85 19 150 69 549 92 728 106 830 6 39
23 176 40 305 55 437 90 715 95 747 3 18 14 103 25 190 53 426 81 641 85 668
2 17 31 244 65 505 33 261 68 531 76 600 28 212 7 369 -71 537 -133 289 -399
503 -701 564 -90 19 -451 19 -14576 17 -14377 -3 -14483 -3 -14531 -23 -98
-40 -204 -141 -270 -257 -15 -25 -40 -86 -56 -135 -30 -88 -36 -123 -101 -628
-98 -760 -179 -1380 -185 -1421 -5 -33 -52 -400 -61 -474 -3 -25 -12 -90 -19
-145 -8 -55 -21 -154 -30 -220 -21 -168 -41 -325 -64 -500 -21 -155 -50 -380
-102 -780 -16 -126 -31 -243 -34 -260 -2 -16 -9 -70 -15 -120 -6 -49 -13 -101
-15 -115 -2 -14 -9 -61 -14 -105 -6 -44 -35 -271 -65 -505 -31 -234 -65 -497
-76 -585 -12 -88 -25 -189 -30 -225 -6 -36 -21 -155 -35 -265 -14 -110 -27
-213 -30 -230 -2 -16 -9 -68 -15 -115 -6 -47 -13 -101 -15 -120 -3 -19 -23
-174 -45 -345 -22 -170 -47 -359 -55 -420 -14 -104 -92 -705 -114 -880 -6 -44
-22 -168 -36 -275 -28 -214 -63 -483 -100 -770 -13 -102 -40 -304 -59 -450
-19 -146 -40 -305 -46 -355 -6 -49 -13 -101 -15 -115 -2 -14 -9 -63 -15 -110
-17 -137 -37 -291 -65 -500 -14 -107 -36 -280 -50 -385 -32 -247 -52 -399 -70
-537 -8 -62 -22 -167 -30 -233 -9 -66 -18 -136 -20 -155 -3 -19 -12 -89 -20
-155 -9 -66 -20 -151 -25 -190 -19 -141 -92 -703 -120 -920 -5 -38 -18 -142
-30 -230 -12 -88 -27 -209 -35 -270 -19 -151 -93 -721 -100 -771 -9 -65 -42
-79 -190 -80 -94 -1 -134 -6 -187 -23 -83 -27 -202 -105 -264 -174 -35 -39
-117 -152 -140 -195 -1 -2 -23 2 -48 9 -43 11 -47 14 -42 38 3 14 12 80 21
146 17 136 21 173 105 815 33 256 62 479 65 495 2 17 16 120 30 230 14 110 36
283 50 385 13 102 36 275 50 385 14 110 27 214 30 230 6 42 55 421 61 475 3
25 12 90 19 145 8 55 21 154 30 220 8 66 21 172 29 235 9 63 33 255 55 425 23
171 45 342 51 380 5 39 21 160 35 270 14 110 27 214 30 230 2 17 9 71 15 120
6 50 13 101 15 115 2 14 22 167 44 340 23 173 48 365 56 425 8 61 24 180 35
265 10 85 26 207 34 270 19 140 45 341 52 395 2 22 9 72 14 110 14 101 19 141
30 225 39 312 101 787 110 845 5 39 28 214 50 390 23 176 43 331 45 345 2 14
11 79 19 145 8 66 22 174 31 240 47 358 155 1185 185 1420 10 83 26 202 34
265 36 273 87 660 111 845 14 110 27 214 30 230 2 17 22 172 44 345 22 173 45
347 51 385 5 39 26 194 45 345 19 151 49 376 65 500 16 124 39 297 50 385 12
88 27 210 35 270 8 61 21 164 30 230 9 66 18 136 20 155 2 19 13 103 25 185
11 83 31 238 45 345 97 764 100 780 144 887 36 87 71 143 130 206 57 61 102
91 171 111 49 15 1420 16 15341 16 13752 0 15295 -2 15375 -15 339 -59 657
-357 753 -706 37 -131 36 -215 -3 -524 -89 -696 -133 -1039 -196 -1530 -11
-82 -36 -276 -55 -430 -72 -563 -95 -742 -109 -855 -9 -63 -31 -239 -51 -390
-19 -151 -57 -450 -84 -665 -28 -214 -53 -408 -56 -430 -2 -22 -14 -112 -25
-200 -53 -414 -81 -633 -85 -663 -3 -18 -14 -108 -25 -200 -12 -92 -23 -178
-25 -192 -2 -14 -13 -99 -25 -190 -11 -91 -22 -178 -25 -195 -2 -16 -13 -104
-25 -195 -11 -91 -22 -179 -25 -197 -3 -18 -14 -103 -24 -190 -11 -87 -36
-284 -56 -438 -43 -336 -66 -514 -100 -780 -14 -110 -28 -215 -30 -233 -3 -18
-16 -122 -30 -230 -13 -108 -36 -285 -50 -392 -14 -107 -48 -373 -75 -590 -28
-217 -53 -411 -56 -430 l-6 -36 144 -38 c285 -77 591 -192 777 -292 46 -25 85
-43 87 -41 3 2 11 58 20 123 18 142 48 376 69 534 8 63 21 167 29 230 9 63 36
273 61 465 85 653 125 970 141 1090 8 66 17 131 19 145 2 14 25 185 50 380 25
195 47 369 50 385 2 17 18 138 35 270 17 132 32 254 34 270 9 61 17 126 51
390 20 149 62 477 95 730 33 253 85 651 115 885 30 234 69 529 85 655 50 379
108 828 135 1035 13 107 38 299 55 425 30 230 57 439 65 505 2 19 20 154 40
300 19 146 48 373 65 505 36 280 54 418 74 570 8 61 17 133 21 160 3 28 19
147 35 265 41 309 30 451 -49 625 -88 194 -266 371 -438 435 -131 49 -157 51
-789 49 -326 0 -594 -2 -596 -4z m-2827 -8370 c16 -9 87 -68 157 -132 133
-121 313 -262 371 -289 58 -28 115 -15 221 49 76 46 102 57 137 57 53 0 106
-26 152 -74 52 -54 53 -103 2 -245 -23 -63 -41 -122 -41 -130 0 -21 139 -158
211 -208 l56 -39 -43 -74 c-95 -162 -139 -324 -138 -510 0 -111 6 -156 58
-408 31 -155 66 -308 77 -339 38 -111 104 -188 287 -333 50 -40 92 -74 92 -76
0 -7 -129 -80 -228 -129 -195 -97 -290 -129 -487 -166 -140 -26 -416 -21 -561
10 -129 27 -283 80 -393 136 -136 69 -134 61 -40 129 84 63 189 168 213 214 7
15 32 149 55 297 23 149 49 312 57 364 17 103 13 149 -17 198 -30 49 -66 66
-310 149 -128 43 -234 85 -248 97 -23 22 -23 23 -16 177 4 85 8 157 10 160 1
3 6 68 9 145 l7 140 -86 75 c-47 40 -85 76 -85 78 0 2 61 79 136 170 124 151
144 182 214 322 42 85 83 165 91 178 16 26 39 28 80 7z m-266 -5437 c8 -29 98
-352 199 -717 174 -624 184 -665 170 -687 -11 -15 -17 -56 -20 -121 -10 -229
-14 -271 -30 -318 -23 -69 -62 -125 -104 -149 -31 -19 -51 -21 -180 -20 -154
0 -236 12 -538 80 -231 51 -349 44 -443 -29 -164 -126 -140 -375 56 -573 92
-94 158 -139 334 -228 250 -127 501 -205 731 -230 163 -18 233 -28 420 -60
113 -20 219 -38 236 -41 31 -5 32 -6 78 -170 25 -91 46 -170 46 -175 0 -7
-538 -10 -1548 -10 l-1548 0 -108 388 c-59 213 -172 619 -251 902 -79 283
-248 889 -375 1345 -127 457 -233 838 -236 848 -5 16 73 17 1545 17 l1550 0
16 -52z m4653 -1115 c-10 -2 -26 -2 -35 0 -10 3 -2 5 17 5 19 0 27 -2 18 -5z
m110 0 c-15 -2 -42 -2 -60 0 -18 2 -6 4 27 4 33 0 48 -2 33 -4z m-993 -58 c77
-3 181 -8 230 -10 238 -11 319 -15 435 -20 325 -14 340 -15 341 -39 1 -49 -2
-215 -6 -266 -2 -30 -7 -102 -10 -160 -11 -202 -46 -547 -75 -750 -61 -418
-137 -670 -236 -780 -52 -57 -123 -80 -329 -105 -61 -8 -545 -8 -630 -1 -33 3
-116 8 -184 12 -68 3 -133 7 -145 9 -11 2 -61 6 -111 10 -49 3 -135 10 -190
16 -55 5 -125 11 -155 14 -223 21 -609 67 -1005 121 -502 67 -790 110 -1092
164 -123 22 -283 47 -356 55 -248 27 -423 73 -636 166 -378 165 -570 344 -572
536 -2 107 44 169 148 199 69 20 111 16 319 -31 447 -102 681 -108 791 -19 65
53 120 177 137 309 3 22 5 93 6 158 0 87 3 117 13 117 6 0 43 -24 82 -53 130
-97 208 -221 252 -400 31 -128 82 -226 154 -298 128 -128 244 -163 609 -184
63 -4 129 -9 145 -11 17 -3 248 -7 515 -9 537 -4 779 7 1032 46 105 17 120 41
158 254 21 118 36 268 45 460 3 66 8 149 10 185 2 36 4 123 5 193 l0 129 83
-6 c45 -3 145 -8 222 -11z m-33001 -1361 c220 -46 413 -181 515 -359 83 -144
120 -294 121 -481 0 -252 -72 -472 -231 -705 -61 -89 -195 -239 -185 -207 34
110 51 234 51 373 0 212 -38 358 -135 526 -129 219 -373 426 -646 544 -41 18
-78 35 -81 38 -9 10 63 102 121 154 60 55 138 100 205 119 57 16 184 15 265
-2z m4145 -990 c36 -30 116 -169 212 -368 113 -235 179 -424 179 -511 l0 -44
-217 -112 c-120 -61 -309 -159 -421 -216 -112 -58 -205 -103 -207 -101 -1 1
12 84 30 183 140 756 207 1102 218 1124 33 70 147 95 206 45z m24327 -722 c6
-4 39 -61 73 -127 34 -66 100 -176 145 -245 487 -736 1265 -1315 2196 -1635
237 -81 560 -166 783 -206 74 -14 103 -35 92 -68 -13 -41 -35 -42 -187 -12
-771 157 -1442 447 -2013 871 -293 217 -603 523 -816 805 -138 182 -295 437
-335 541 -16 42 -16 45 1 64 19 21 42 25 61 12z m-23556 -223 c83 -217 131
-444 131 -627 1 -203 -45 -345 -145 -448 -54 -56 -76 -66 -76 -36 -1 45 -90
276 -178 457 l-97 200 1 85 c2 64 10 114 36 204 l35 120 119 62 c65 35 124 64
131 64 6 0 26 -36 43 -81z m-414 -125 c-44 -114 -59 -294 -32 -372 8 -22 49
-111 91 -198 147 -304 193 -455 210 -689 3 -49 18 -200 33 -335 23 -212 26
-288 26 -560 0 -257 -3 -333 -17 -415 -55 -310 -134 -483 -291 -640 -76 -76
-106 -98 -186 -138 -132 -65 -231 -87 -415 -94 -177 -6 -212 -19 -245 -89 -19
-38 -20 -55 -16 -176 3 -73 8 -227 11 -343 6 -220 12 -376 20 -485 3 -36 7
-105 11 -155 3 -49 12 -146 20 -215 26 -220 27 -255 14 -311 -28 -123 -113
-230 -223 -283 -101 -49 -631 -171 -932 -215 -322 -46 -521 -60 -790 -56 -266
5 -438 27 -665 86 -132 35 -179 59 -239 124 -55 60 -81 120 -87 203 -5 58 0
84 34 197 104 339 160 763 149 1129 -3 105 -7 200 -9 211 -2 16 3 21 32 23 59
5 349 72 468 108 451 137 732 288 976 523 252 245 411 508 508 846 53 186 85
441 74 599 l-6 88 60 -55 c33 -31 90 -71 128 -89 63 -31 74 -33 172 -33 97 0
110 2 172 32 71 34 90 55 77 90 -11 30 -45 38 -75 18 -46 -30 -108 -46 -178
-46 -57 0 -81 6 -131 30 -107 53 -230 198 -259 306 -8 28 -27 100 -44 160 -56
204 -66 264 -66 385 0 131 15 200 69 317 96 207 208 270 345 191 67 -38 154
-127 216 -219 35 -53 51 -69 69 -69 38 0 52 23 65 108 6 43 15 84 19 90 4 6
106 62 226 123 121 62 306 157 410 211 105 53 194 98 199 98 4 0 5 -7 2 -16z
m498 -1147 c49 -72 58 -91 58 -129 0 -61 -17 -90 -100 -171 l-69 -69 -8 89
c-3 48 -8 102 -10 118 -2 17 -7 69 -10 117 -6 80 -5 87 13 92 11 4 27 15 37
26 10 11 21 18 24 15 4 -2 33 -42 65 -88z m14699 -1575 l868 -2 -4 -1393 c-3
-1273 -5 -1398 -20 -1462 -76 -308 -223 -565 -446 -777 -103 -98 -217 -182
-356 -261 -88 -50 -2685 -1146 -2830 -1195 -50 -16 -133 -39 -185 -51 -230
-52 -58 -50 -3513 -50 -2835 -1 -3221 1 -3247 14 -44 23 -58 82 -29 119 19 24
122 69 1734 756 689 294 686 293 791 355 472 281 769 723 823 1227 7 63 11
560 11 1413 l0 1315 2768 -2 c1522 -2 3157 -4 3635 -6z m-19502 -608 c167
-141 388 -283 581 -374 l86 -40 7 -53 c4 -28 9 -65 12 -82 7 -40 7 -429 -1
-480 -3 -22 -10 -85 -16 -140 -16 -151 -21 -175 -34 -175 -7 0 -97 -23 -202
-51 -219 -58 -484 -145 -667 -218 -70 -28 -129 -51 -131 -51 -1 0 17 75 41
168 123 474 175 857 176 1302 0 140 -3 273 -7 294 l-7 39 39 -34 c22 -19 77
-66 123 -105z m3789 -1379 c941 -152 1940 -451 2594 -776 454 -226 773 -465
1000 -748 560 -699 1024 -1612 1399 -2756 175 -532 351 -1224 443 -1740 33
-182 42 -498 20 -650 -27 -185 -118 -585 -165 -724 -163 -487 -475 -896 -896
-1176 -375 -250 -792 -379 -1225 -379 -199 -1 -295 15 -420 67 -116 48 -140
79 -321 412 -139 257 -160 291 -187 299 -27 9 -39 28 -109 175 -470 991 -467
986 -497 989 -30 4 -56 -12 -56 -35 0 -14 15 -48 125 -278 37 -77 84 -176 105
-220 60 -127 119 -252 245 -515 l117 -245 -17 -135 c-31 -234 -27 -576 10
-860 70 -550 287 -1230 629 -1972 19 -43 34 -78 31 -78 -5 0 -330 396 -442
540 -688 881 -1270 1949 -1643 3015 -136 388 -216 669 -395 1385 -132 527
-139 544 -251 656 -85 86 -182 137 -299 160 -73 15 -107 15 -360 1 -207 -11
-442 -14 -900 -11 -341 2 -640 6 -665 8 -25 3 -128 10 -230 16 -102 6 -201 13
-220 15 -19 2 -69 7 -110 10 -193 16 -688 74 -810 95 -30 5 -149 26 -265 45
-1085 185 -2099 516 -2970 969 l-160 83 -3 119 c-3 103 11 387 23 456 2 13 11
75 20 138 21 146 76 388 127 555 143 467 423 976 730 1329 l35 40 51 -160 c70
-218 118 -385 153 -539 17 -71 39 -149 50 -172 41 -85 129 -136 234 -134 109
1 152 35 269 215 396 607 720 1261 940 1896 l71 205 140 58 c182 76 506 185
719 242 93 25 171 43 173 41 7 -7 -49 -252 -84 -366 -41 -135 -47 -197 -27
-281 32 -135 118 -244 238 -300 108 -50 361 -107 576 -128 126 -13 537 -13
680 -1 348 30 727 96 1098 191 191 49 246 70 321 120 138 92 234 289 216 443
-3 28 -12 103 -20 166 -7 63 -16 147 -19 186 -5 65 -4 72 12 68 9 -2 87 -15
172 -29z m5710 -8015 c249 -581 277 -641 327 -702 309 -381 1004 -738 2018
-1038 1251 -370 3077 -670 4985 -820 140 -11 278 -22 305 -25 28 -2 104 -7
170 -11 66 -3 131 -8 145 -10 14 -2 108 -7 210 -10 183 -6 186 -6 303 25 237
61 503 94 746 93 271 -2 385 -16 621 -79 l135 -36 500 -2 c513 -1 538 -2 663
-36 222 -59 302 -184 257 -399 -17 -81 -88 -286 -122 -354 -77 -154 -241 -317
-483 -481 -95 -65 -153 -93 -350 -170 -529 -207 -937 -235 -1355 -93 -116 39
-325 141 -440 213 -122 78 -191 111 -282 137 -95 27 -230 29 -673 11 -377 -16
-785 -30 -1470 -48 -546 -15 -741 -20 -1185 -30 -121 -3 -299 -7 -395 -10 -96
-3 -278 -7 -405 -10 -602 -13 -712 -16 -870 -20 -93 -3 -282 -7 -420 -10 -137
-3 -313 -7 -390 -10 -77 -3 -304 -8 -505 -12 -201 -3 -394 -7 -430 -9 -192 -7
-641 -4 -750 6 -1149 96 -2190 691 -2862 1633 -136 191 -199 301 -458 797 -67
129 -152 290 -187 357 l-65 123 159 -1 c178 0 295 11 463 47 718 152 1312 613
1635 1269 41 83 93 206 116 274 39 114 43 122 54 100 7 -13 135 -310 285 -659z
m7393 -446 c389 -252 405 -264 442 -324 64 -105 151 -160 255 -160 42 0 38 2
535 -320 198 -128 389 -252 425 -275 36 -23 200 -130 365 -237 165 -107 348
-225 407 -264 530 -341 740 -479 744 -485 2 -4 -134 -7 -303 -5 -259 1 -317 5
-363 19 -85 27 -256 65 -350 79 -117 17 -552 17 -706 -1 l-121 -14 -94 50
c-52 28 -157 83 -234 123 -77 40 -171 89 -210 110 -38 21 -137 72 -220 115
-365 189 -338 171 -444 289 -40 46 -116 76 -189 76 -60 0 -72 5 -245 94 -330
171 -347 181 -347 191 0 6 32 64 71 130 78 131 347 589 442 753 33 56 62 102
64 102 3 0 37 -21 76 -46z m-1350 -154 c473 -288 562 -346 565 -368 4 -30 -14
-52 -43 -52 -13 0 -131 66 -262 146 -515 317 -495 303 -473 343 22 43 37 38
213 -69z m4053 -1315 c241 -61 423 -182 543 -361 42 -63 118 -221 109 -229 -2
-2 -127 77 -278 175 -151 98 -364 236 -473 307 -181 116 -196 129 -170 134 49
10 175 -2 269 -26z m1483 -1248 c53 -34 162 -105 243 -157 82 -52 148 -98 148
-101 0 -3 -47 -97 -104 -207 -123 -238 -115 -221 -105 -249 6 -17 16 -23 39
-23 36 0 33 -5 155 234 50 97 93 175 97 173 7 -2 657 -721 654 -724 -1 -1
-679 151 -870 197 -132 31 -191 58 -615 282 l-59 31 60 71 c70 83 128 178 159
259 12 31 26 57 30 57 5 0 77 -43 161 -95 84 -52 160 -95 169 -95 9 0 24 9 34
20 32 35 8 59 -169 168 -91 57 -166 106 -166 109 0 13 34 113 38 113 3 0 48
-28 101 -63z"/>
<path d="M28298 3718 c-28 -22 -328 -528 -328 -554 0 -27 38 -51 63 -41 19 7
337 536 337 559 0 19 -26 48 -44 48 -7 0 -19 -6 -28 -12z"/>
<path d="M28670 3480 c-21 -21 -25 -37 -12 -56 6 -10 355 -232 993 -630 91
-57 174 -104 185 -104 43 0 60 53 27 82 -10 8 -119 78 -243 156 -124 77 -380
237 -569 356 -190 119 -348 216 -353 216 -4 0 -17 -9 -28 -20z"/>
<path d="M14376 33948 c-10 -79 -27 -201 -37 -273 -10 -71 -19 -136 -19 -142
0 -10 579 -13 2860 -13 1573 0 2860 3 2860 8 0 4 5 39 10 77 39 287 60 453 60
468 0 16 -143 17 -2858 17 l-2858 0 -18 -142z"/>
<path d="M25160 33977 c0 -18 -69 -538 -75 -564 l-5 -23 604 0 c567 0 605 1
610 18 2 9 7 42 11 72 3 30 17 134 30 230 13 96 27 199 30 228 l7 52 -606 0
c-484 0 -606 -3 -606 -13z"/>
<path d="M29332 33324 c-120 -26 -236 -80 -338 -156 l-51 -38 -885 0 c-773 0
-887 -2 -898 -15 -12 -14 -90 -554 -90 -620 0 -17 5 -36 12 -43 9 -9 199 -12
795 -12 l783 0 0 -1104 c0 -607 3 -1124 6 -1150 l7 -46 -936 0 c-883 0 -936
-1 -941 -17 -2 -10 -12 -74 -21 -143 -9 -69 -25 -187 -36 -263 -10 -76 -19
-147 -19 -157 0 -20 17 -20 1222 -20 l1221 0 71 -24 c39 -14 100 -30 136 -35
45 -8 1075 -11 3271 -11 l3206 0 99 -147 c54 -81 100 -151 102 -155 2 -4
-1553 -9 -3455 -10 l-3458 -3 -32 -235 c-17 -129 -34 -263 -38 -297 l-7 -63
3703 0 3704 0 127 -188 127 -187 -1664 -3 c-916 -1 -1665 -4 -1665 -7 0 -3 -9
-71 -20 -153 -11 -81 -25 -185 -31 -232 -6 -47 -15 -109 -20 -139 -5 -30 -9
-58 -9 -63 0 -4 1291 -8 2869 -8 l2868 0 6 138 c4 75 10 210 13 300 l6 162
-1070 0 -1071 0 -3 183 c-2 100 -2 185 0 190 2 4 565 7 1253 7 l1249 0 0 68
c0 37 3 172 7 300 l6 232 -1257 0 -1256 0 -1 130 c-1 72 -1 137 -1 145 0 8 0
19 1 24 0 5 85 11 189 13 174 4 193 7 272 33 l85 29 560 6 560 5 12 80 c6 44
16 118 22 165 7 47 20 145 30 218 l18 132 -365 0 c-343 0 -364 1 -357 18 3 9
8 85 11 167 l5 150 1008 3 c804 2 1011 5 1019 15 6 7 15 48 21 92 6 44 24 179
40 300 36 257 36 249 15 269 -14 14 -124 16 -1060 16 l-1044 0 0 165 0 165 33
0 c17 0 823 0 1789 0 1666 0 1757 1 1762 17 5 16 54 381 72 525 l6 58 -1831 2
-1832 3 -2 168 -2 167 522 0 c461 0 523 2 537 16 9 8 16 21 16 27 0 7 7 64 16
127 8 63 24 182 35 264 10 82 22 165 25 186 12 74 57 70 -719 70 l-692 1 -64
49 c-73 55 -155 97 -256 131 l-70 24 -3960 2 c-3329 1 -3970 -1 -4023 -13z
m7925 -84 c164 -27 278 -85 399 -205 66 -66 89 -97 127 -175 88 -179 81 -62
85 -1414 3 -1298 3 -1291 -51 -1424 -41 -101 -87 -172 -167 -253 -61 -61 -94
-85 -170 -122 -140 -69 -183 -77 -405 -77 -133 0 -197 -4 -215 -13 l-25 -13
-5 -671 -5 -671 -270 396 c-148 218 -313 460 -365 537 -257 378 -286 418 -308
426 -13 5 -1413 9 -3246 9 -2028 0 -3242 4 -3274 10 -77 14 -195 63 -268 110
-119 78 -244 232 -292 360 -43 116 -42 83 -42 1364 l0 1218 31 91 c92 276 328
475 614 517 80 12 7779 12 7852 0z m-8407 -207 c0 -2 -16 -24 -36 -50 -76 -99
-154 -307 -154 -409 l0 -34 -736 -2 c-405 -2 -740 -1 -745 2 -4 3 5 106 21
229 17 123 30 229 30 237 0 8 9 18 19 22 17 6 1601 11 1601 5z m10158 -8 c5
-5 -56 -476 -62 -483 -2 -2 -221 -3 -487 -2 -368 0 -485 4 -491 13 -4 7 -8 28
-8 47 -1 95 -75 307 -136 387 -14 18 -23 36 -21 41 5 8 1197 5 1205 -3z m976
-1972 c-2 -10 -15 -106 -29 -213 -14 -107 -28 -212 -31 -232 l-6 -38 -974 0
-974 0 -1 230 c-1 127 -2 236 -3 243 -1 6 -1 15 1 20 2 4 458 7 1013 7 955 0
1008 -1 1004 -17z"/>
<path d="M33499 32527 c-20 -11 -84 -169 -436 -1087 -226 -591 -412 -1085
-412 -1096 -1 -29 22 -46 55 -42 26 3 33 17 144 308 563 1472 710 1862 710
1884 0 33 -28 49 -61 33z"/>
<path d="M32125 31799 c-132 -60 -370 -169 -529 -241 -159 -73 -295 -138 -302
-146 -19 -19 -17 -46 4 -64 9 -8 53 -30 97 -50 44 -20 279 -127 522 -237 243
-111 453 -201 467 -201 29 0 50 31 41 59 -6 19 -45 40 -205 111 -213 94 -756
342 -762 348 -4 4 57 36 135 72 645 293 814 373 825 387 6 9 12 22 12 29 0 18
-29 44 -48 44 -9 -1 -125 -50 -257 -111z"/>
<path d="M33856 31894 c-20 -20 -20 -48 -1 -64 15 -12 165 -82 717 -333 136
-61 244 -115 240 -118 -4 -4 -218 -102 -477 -219 -258 -117 -476 -217 -482
-223 -16 -12 -17 -49 -1 -65 7 -7 22 -12 34 -12 12 0 255 106 540 235 284 129
520 235 524 235 19 0 42 41 36 63 -5 21 -44 42 -248 135 -134 61 -377 171
-542 246 -164 75 -304 136 -311 136 -8 0 -21 -7 -29 -16z"/>
<path d="M15061 33156 c-6 -8 -18 -65 -27 -127 -8 -63 -19 -145 -24 -184 -40
-297 -43 -334 -30 -350 11 -13 320 -15 3051 -15 2955 0 3039 1 3048 19 6 10
29 155 51 322 31 227 38 310 31 326 l-11 23 -3039 0 c-2587 0 -3040 -2 -3050
-14z m6002 -103 c-34 -254 -63 -467 -66 -469 -4 -4 -5919 -6 -5922 -2 -3 3 51
417 59 463 l6 30 2962 -2 c2821 -3 2963 -4 2961 -20z"/>
<path d="M25045 33081 c-3 -5 -10 -43 -15 -83 -22 -178 -61 -455 -66 -480 l-6
-28 606 0 605 0 5 33 c7 41 22 150 35 252 6 44 18 128 26 186 8 59 15 112 15
118 0 14 -1196 16 -1205 2z"/>
<path d="M15646 32174 c-9 -8 -16 -18 -16 -22 -1 -4 -7 -50 -14 -102 -62 -447
-69 -519 -56 -534 11 -15 354 -16 3549 -14 l3536 3 11 25 c7 14 28 151 48 305
20 154 39 286 42 294 2 8 -3 24 -11 37 l-15 24 -3530 0 c-3194 0 -3530 -1
-3544 -16z m6991 -121 c-3 -21 -17 -128 -32 -238 -14 -110 -28 -206 -30 -212
-3 -10 -706 -13 -3465 -13 l-3462 0 6 28 c3 15 17 117 32 227 22 175 30 233
33 243 1 1 1558 2 3462 2 l3461 0 -5 -37z"/>
<path d="M24906 32068 c-3 -18 -8 -49 -10 -68 -3 -19 -19 -137 -35 -262 -17
-125 -31 -229 -31 -233 0 -3 270 -5 599 -5 l600 1 6 42 c38 290 67 498 72 525
l5 32 -600 0 -601 0 -5 -32z"/>
<path d="M17707 31193 c-11 -13 -27 -107 -58 -331 -39 -293 -41 -315 -25 -330
16 -16 223 -17 2966 -17 2225 0 2952 3 2961 12 10 10 87 536 91 622 3 66 251
61 -2977 61 -2789 0 -2943 -1 -2958 -17z m5833 -95 c-1 -7 -15 -119 -33 -248
l-32 -235 -2878 -3 -2877 -2 0 27 c0 16 14 125 30 243 16 118 30 218 30 223 0
4 1296 7 2880 7 2298 0 2880 -3 2880 -12z"/>
<path d="M24796 31103 c-2 -10 -7 -43 -11 -73 -3 -30 -20 -151 -36 -269 -16
-117 -29 -220 -29 -227 0 -12 95 -14 569 -14 l568 0 12 93 c35 269 62 465 66
485 l5 22 -569 0 c-534 0 -570 -1 -575 -17z"/>
<path d="M13922 30013 c-13 -93 -28 -204 -34 -248 -5 -44 -14 -101 -18 -127
-4 -26 -5 -50 -2 -53 3 -3 936 -5 2074 -5 1517 0 2068 3 2068 11 0 17 70 541
75 567 l5 22 -2073 0 -2073 0 -22 -167z"/>
<path d="M24646 30093 c-4 -27 -11 -79 -16 -118 -5 -38 -18 -140 -30 -225 -11
-85 -23 -167 -26 -182 l-6 -28 580 0 580 0 6 28 c3 15 12 83 21 152 8 69 20
154 25 190 5 36 12 81 14 100 3 19 8 56 11 83 l7 47 -580 0 -579 0 -7 -47z"/>
<path d="M16821 29241 c-29 -8 -35 -27 -50 -144 -17 -139 -42 -321 -46 -347
-10 -55 -19 -146 -16 -160 7 -41 -108 -40 3242 -40 3040 0 3208 1 3227 18 16
13 23 37 31 102 6 47 24 184 41 305 16 121 27 228 24 238 -3 10 -17 22 -31 28
-28 10 -6384 11 -6422 0z m6349 -118 c0 -16 -4 -55 -9 -88 -6 -33 -13 -85 -16
-115 -3 -30 -10 -82 -15 -115 -5 -33 -12 -81 -15 -107 l-6 -48 -3151 0 -3151
0 6 38 c3 20 17 127 32 237 14 110 28 206 30 213 4 9 642 12 3150 12 l3145 0
0 -27z"/>
<path d="M24515 29148 c-4 -12 -16 -99 -46 -323 -24 -185 -30 -231 -34 -248
-3 -16 28 -17 578 -15 l581 3 38 275 c20 151 37 285 38 298 l0 22 -575 0
c-452 0 -577 -3 -580 -12z"/>
<path d="M13730 28213 c0 -5 -7 -60 -15 -123 -9 -63 -22 -167 -31 -230 -20
-152 -24 -180 -30 -212 l-6 -28 2074 0 2073 0 33 248 c18 136 36 271 39 300
l6 52 -2072 0 c-1139 0 -2071 -3 -2071 -7z"/>
<path d="M24446 28198 c-3 -13 -19 -131 -36 -263 -18 -132 -34 -257 -37 -277
l-5 -38 550 0 549 0 23 173 c12 94 30 226 39 292 12 83 14 122 7 127 -6 4
-253 8 -548 8 l-538 0 -4 -22z"/>
<path d="M16580 27258 c-5 -13 -23 -131 -40 -263 -17 -132 -35 -267 -40 -299
-8 -49 -7 -64 5 -83 l15 -23 3220 0 3220 0 14 23 c7 12 19 65 26 117 6 52 13
106 15 120 2 14 11 79 20 145 16 123 20 153 30 217 4 26 1 41 -10 52 -15 15
-300 16 -3241 16 l-3224 0 -10 -22z m6380 -80 c0 -13 -49 -391 -55 -423 -2
-11 -4 -30 -4 -42 l-1 -23 -3150 0 -3150 0 0 23 c0 13 4 48 9 78 5 30 20 132
32 227 l23 172 3148 0 c2462 0 3148 -3 3148 -12z"/>
<path d="M24304 27232 c-6 -4 -23 -99 -38 -212 -15 -113 -33 -244 -40 -292
-10 -66 -10 -88 -1 -92 6 -2 264 -5 573 -5 l561 -2 5 23 c14 61 77 562 72 574
-4 11 -106 13 -563 14 -307 0 -563 -3 -569 -8z"/>
<path d="M33222 27223 c-6 -10 -13 -43 -16 -73 -4 -30 -13 -100 -21 -155 -58
-411 -58 -406 -39 -426 17 -19 71 -19 2434 -19 2103 0 2419 2 2430 15 19 22
97 632 84 653 -11 16 -162 17 -2437 20 -2303 2 -2427 1 -2435 -15z m4774 -108
c-3 -16 -17 -120 -31 -230 -14 -110 -28 -210 -30 -222 l-5 -22 -2345 -1 -2345
0 0 22 c0 13 14 121 30 241 17 120 30 223 30 227 0 5 10 10 23 12 12 2 1070 3
2350 3 l2328 0 -5 -30z"/>
<path d="M13335 26208 c-2 -18 -16 -121 -30 -228 -14 -107 -29 -221 -34 -252
l-8 -58 2317 0 2317 0 22 168 c23 173 24 180 41 297 5 39 10 78 10 88 0 16
-117 17 -2315 17 l-2314 0 -6 -32z"/>
<path d="M34556 26183 c-3 -21 -17 -123 -31 -228 -14 -104 -29 -220 -35 -257
-5 -37 -10 -70 -10 -75 0 -7 4772 -7 4792 -1 9 3 89 579 82 590 -3 5 -1082 8
-2399 8 l-2393 0 -6 -37z"/>
<path d="M24112 26118 c-7 -46 -23 -163 -37 -261 -14 -97 -25 -189 -25 -202
l0 -25 578 0 577 0 34 248 c18 136 36 264 39 285 l5 37 -580 0 -580 0 -11 -82z"/>
<path d="M14632 25302 c-14 -14 -23 -52 -36 -153 -17 -137 -38 -291 -56 -412
-7 -47 -7 -74 0 -87 11 -20 32 -20 1736 -20 l1724 0 9 23 c5 12 11 49 15 82 4
33 9 71 11 85 2 14 16 113 30 220 14 107 28 205 30 217 3 15 -2 30 -15 43 -20
20 -29 20 -1725 20 -1639 0 -1706 -1 -1723 -18z m3358 -88 c0 -8 -48 -376 -58
-439 l-7 -50 -1643 -3 -1642 -2 0 25 c0 14 6 67 14 118 8 50 22 152 32 225
l17 132 1644 0 c903 0 1643 -3 1643 -6z"/>
<path d="M26108 25263 c-10 -12 -24 -84 -42 -213 -15 -107 -34 -248 -43 -312
-13 -95 -13 -121 -3 -133 11 -13 653 -15 5975 -15 5149 0 5964 2 5974 14 11
13 91 566 91 628 0 17 -8 31 -19 38 -14 7 -1887 10 -5969 10 -5653 0 -5950 -1
-5964 -17z m11848 -115 c-3 -18 -17 -118 -31 -223 -14 -104 -28 -202 -31 -217
l-6 -28 -5884 0 -5884 0 0 23 c0 20 44 368 56 445 l5 32 5891 0 5890 0 -6 -32z"/>
<path d="M24046 25212 c-3 -15 -13 -81 -21 -147 -9 -66 -25 -182 -36 -258 -10
-76 -19 -147 -19 -158 0 -18 17 -19 546 -18 412 0 546 3 549 12 6 18 75 543
75 572 l0 25 -544 0 -545 -1 -5 -27z"/>
<path d="M15992 24323 c-19 -16 -26 -54 -63 -332 l-42 -315 23 -18 c22 -17 87
-18 1651 -18 1567 0 1630 1 1648 19 13 13 22 47 31 117 7 54 25 192 41 307 15
114 26 214 22 222 -3 9 -13 20 -23 25 -11 6 -651 10 -1642 10 -1540 0 -1626
-1 -1646 -17z m3208 -110 c0 -14 -4 -54 -9 -87 -6 -34 -14 -95 -20 -136 -5
-41 -15 -114 -22 -162 l-12 -88 -1572 0 -1572 0 3 23 c2 12 10 74 19 137 8 63
22 163 30 221 8 59 15 109 15 113 0 3 707 6 1570 6 l1570 0 0 -27z"/>
<path d="M28447 24283 c-15 -17 -22 -63 -83 -517 l-17 -129 22 -19 c22 -17 78
-18 1593 -16 1541 3 1570 3 1584 22 18 25 18 41 -2 60 -14 14 -169 16 -1555
16 -1462 0 -1540 1 -1535 18 2 9 7 42 11 72 10 84 34 267 46 343 l11 67 1393
0 c1254 0 1395 2 1409 16 22 22 20 50 -6 68 -20 14 -173 16 -1439 16 -1336 0
-1417 -1 -1432 -17z"/>
<path d="M32590 24280 c-25 -25 -25 -42 -2 -63 17 -16 209 -17 2556 -17 l2538
0 59 46 c32 26 59 49 59 50 0 2 -1168 4 -2595 4 -2582 0 -2595 0 -2615 -20z"/>
<path d="M23890 24233 c0 -10 -18 -143 -38 -295 -32 -234 -36 -278 -24 -283 8
-3 266 -5 573 -5 l558 1 6 32 c12 73 75 540 75 558 0 5 -249 9 -575 9 -541 0
-575 -1 -575 -17z"/>
<path d="M32986 23679 c-19 -27 -7 -61 25 -70 13 -4 936 -7 2050 -8 l2027 -1
41 45 c23 24 41 47 41 50 0 3 -938 5 -2084 5 l-2085 0 -15 -21z"/>
<path d="M17295 23353 c-11 -3 -24 -8 -28 -13 -9 -8 -87 -564 -87 -622 0 -27
6 -40 19 -48 31 -16 4132 -14 4155 3 13 10 22 52 41 197 14 102 32 231 40 287
21 141 20 169 -7 187 -20 14 -237 16 -2068 15 -1125 -1 -2054 -4 -2065 -6z
m4051 -125 c-3 -18 -15 -107 -27 -198 -11 -91 -24 -187 -27 -215 l-7 -50
-2002 -3 c-1102 -1 -2003 0 -2003 3 0 2 11 87 25 187 13 101 27 208 31 238 3
30 8 58 11 63 2 4 904 7 2005 7 l2000 0 -6 -32z"/>
<path d="M33522 23304 c-24 -17 -29 -53 -10 -72 9 -9 390 -12 1653 -12 l1641
0 32 45 c18 25 32 48 32 50 0 3 -748 5 -1663 5 -1489 0 -1665 -2 -1685 -16z"/>
<path d="M23720 23215 c0 -3 -16 -123 -35 -267 -19 -145 -36 -272 -38 -283 -2
-20 4 -20 578 -20 l580 0 37 270 c20 149 37 278 37 288 1 16 -33 17 -579 17
-319 0 -580 -2 -580 -5z"/>
<path d="M8503 22668 c-50 -51 -96 -103 -102 -115 -15 -29 -1 -58 31 -67 19
-5 39 11 126 99 57 59 102 114 102 125 0 23 -26 50 -48 50 -10 0 -58 -42 -109
-92z"/>
<path d="M7802 22728 c-27 -27 -11 -55 86 -151 100 -100 133 -117 162 -82 22
27 2 61 -94 153 -95 92 -126 108 -154 80z"/>
<path d="M33867 22699 c-19 -27 -10 -58 20 -70 15 -5 527 -9 1283 -9 l1259 0
19 28 c11 15 24 37 31 50 l12 22 -1305 0 -1305 0 -14 -21z"/>
<path d="M28164 22370 c-38 -15 -32 8 -73 -300 -46 -345 -48 -361 -26 -377 16
-11 391 -13 2235 -13 2135 0 2218 1 2233 18 21 23 22 46 1 66 -14 14 -227 16
-2201 16 l-2186 0 7 38 c3 20 17 127 31 237 14 110 28 206 30 213 4 9 374 12
1808 12 1561 0 1806 2 1817 14 18 22 8 59 -20 73 -20 10 -397 13 -1830 12
-993 0 -1815 -4 -1826 -9z"/>
<path d="M23615 22308 c-2 -13 -11 -70 -19 -128 -41 -287 -57 -424 -52 -436 5
-12 96 -14 566 -14 428 1 562 4 565 13 2 7 11 66 20 132 8 66 24 188 35 270
11 83 20 158 20 168 0 16 -34 17 -565 17 l-565 0 -5 -22z"/>
<path d="M12816 22311 c-6 -9 -76 -515 -76 -548 l0 -23 2574 0 2573 0 17 133
c9 72 26 197 37 275 11 79 18 150 15 158 -5 12 -382 14 -2570 14 -1411 0
-2567 -4 -2570 -9z"/>
<path d="M8422 22134 c-12 -8 -22 -25 -22 -37 0 -30 187 -217 217 -217 26 0
53 25 53 48 0 17 -174 193 -209 211 -13 7 -24 6 -39 -5z"/>
<path d="M7999 22131 c-20 -7 -209 -207 -209 -220 0 -5 8 -19 18 -31 29 -36
58 -20 160 90 68 72 93 106 90 121 -4 27 -37 49 -59 40z"/>
<path d="M12857 21376 c-8 -8 -17 -43 -21 -78 -4 -35 -14 -109 -22 -165 -48
-332 -54 -397 -37 -415 15 -17 204 -18 4239 -18 l4224 0 13 23 c8 12 22 83 31
157 9 74 27 211 40 303 19 144 20 171 9 187 -14 20 -60 20 -4238 20 -3656 0
-4226 -2 -4238 -14z m8378 -86 c3 -5 -6 -91 -19 -192 -14 -101 -28 -209 -32
-240 -6 -54 -8 -58 -33 -58 -2178 -2 -8276 1 -8279 5 -2 2 0 39 6 82 6 43 21
150 33 238 12 88 27 163 33 167 17 12 8284 10 8291 -2z"/>
<path d="M23470 21345 c0 -3 -11 -88 -25 -188 -14 -100 -30 -218 -35 -262 -6
-44 -13 -95 -16 -112 l-5 -33 581 0 c319 0 580 2 580 5 0 3 9 71 20 153 11 81
25 185 31 232 6 47 15 109 20 139 5 30 9 58 9 63 0 4 -261 8 -580 8 -319 0
-580 -2 -580 -5z"/>
<path d="M16409 20394 c-21 -25 -98 -619 -84 -647 l11 -22 2434 -2 c1339 -2
2441 1 2448 6 12 7 22 63 67 401 9 63 20 142 25 174 8 48 7 64 -5 83 l-15 23
-2434 0 c-2221 0 -2435 -1 -2447 -16z m4798 -88 c4 -3 -53 -455 -60 -479 -2
-7 -4717 -10 -4725 -3 -4 4 55 456 62 481 3 10 4714 11 4723 1z"/>
<path d="M23330 20358 c-1 -14 -3 -34 -44 -338 -14 -107 -28 -207 -31 -222
l-4 -28 579 0 579 0 5 33 c9 56 25 167 46 327 11 85 23 174 26 198 l6 42 -581
0 c-458 0 -581 -3 -581 -12z"/>
<path d="M27916 20354 c-9 -8 -16 -21 -16 -28 0 -7 -7 -61 -15 -122 -34 -257
-65 -487 -65 -490 0 -1 7 -10 16 -18 14 -15 315 -16 3168 -16 3101 0 3153 0
3170 19 23 25 13 59 -21 72 -15 6 -1196 9 -3121 9 l-3097 0 2 53 c1 52 51 428
57 434 2 2 1338 3 2970 3 2044 0 2973 3 2986 10 23 12 27 59 8 78 -9 9 -694
12 -3019 12 -2721 0 -3009 -1 -3023 -16z"/>
<path d="M17588 19503 c-24 -6 -33 -44 -67 -303 -40 -296 -46 -366 -33 -374 6
-3 1063 -6 2348 -6 1876 0 2341 2 2351 12 7 7 19 65 28 128 16 125 35 262 40
297 2 12 9 65 16 119 13 96 13 97 -10 115 -23 19 -92 19 -2340 18 -1274 -1
-2324 -3 -2333 -6z m4588 -110 c-2 -10 -7 -43 -11 -73 -8 -71 -44 -335 -51
-377 l-5 -33 -2266 0 -2266 0 6 38 c4 20 18 123 32 227 14 105 27 200 30 213
l5 22 2266 0 c2153 0 2265 -1 2260 -17z"/>
<path d="M23266 19408 c-5 -20 -12 -67 -31 -213 -3 -22 -14 -105 -25 -184 -11
-80 -20 -153 -20 -163 0 -17 26 -18 545 -18 428 0 547 3 550 13 6 17 75 537
75 565 l0 22 -545 0 -545 0 -4 -22z"/>
<path d="M23116 18442 c-3 -5 -10 -49 -16 -98 -6 -49 -15 -116 -20 -149 -5
-33 -16 -114 -25 -180 -9 -66 -18 -130 -21 -142 l-4 -23 575 0 575 0 4 23 c3
12 10 58 15 102 6 44 22 163 36 265 14 102 25 190 25 197 0 14 -1135 19 -1144
5z"/>
<path d="M15680 18393 c0 -5 57 -140 127 -300 l128 -293 1615 3 1615 2 12 80
c6 44 16 118 22 165 7 47 20 145 30 218 l18 132 -1784 0 c-981 0 -1783 -3
-1783 -7z"/>
<path d="M16241 17461 c-32 -9 -44 -43 -25 -70 l15 -21 1955 0 c1556 0 1954
-3 1954 -12 0 -7 -14 -120 -32 -250 l-32 -238 -1836 0 c-1415 0 -1839 -3
-1848 -12 -17 -17 -15 -54 4 -72 14 -14 198 -16 1875 -16 1772 0 1860 1 1877
18 14 14 24 66 46 232 16 118 34 257 42 309 15 105 10 125 -33 134 -39 8
-3933 6 -3962 -2z"/>
<path d="M27533 17420 c-25 -10 -27 -17 -52 -220 -11 -85 -27 -206 -36 -269
-9 -62 -15 -130 -13 -150 3 -33 6 -36 38 -41 19 -3 2266 -4 4993 -2 l4957 2
12 25 c9 21 8 28 -7 45 -18 20 -27 20 -4957 20 -3944 0 -4938 3 -4937 13 0 6
14 118 32 247 l32 235 4929 3 c3624 1 4933 5 4942 13 21 17 17 67 -5 79 -24
13 -9895 13 -9928 0z"/>
<path d="M22936 17378 c-3 -18 -12 -87 -21 -153 -21 -167 -45 -336 -50 -363
l-5 -22 582 2 583 3 31 230 c17 127 34 254 38 283 l7 52 -580 0 -579 0 -6 -32z"/>
<path d="M43615 14168 c2 -13 6 -86 10 -163 3 -77 8 -158 10 -180 2 -22 6
-101 10 -175 3 -74 8 -162 10 -195 2 -33 7 -105 10 -160 3 -55 8 -136 10 -180
2 -44 7 -125 10 -180 3 -55 8 -131 10 -170 3 -38 10 -153 15 -255 6 -102 12
-216 15 -255 8 -115 14 -224 20 -330 3 -55 7 -131 10 -170 2 -38 7 -113 10
-165 17 -300 82 -1361 90 -1470 3 -36 12 -175 20 -310 9 -135 17 -267 20 -295
2 -27 7 -93 10 -145 3 -52 14 -225 25 -385 28 -393 28 -396 50 -680 11 -137
25 -322 31 -410 11 -167 15 -892 5 -1074 -3 -58 -8 -158 -11 -221 -13 -267
-51 -787 -70 -960 -2 -19 -6 -62 -9 -95 -9 -89 -45 -428 -56 -520 -14 -119
-31 -256 -35 -290 -2 -16 -11 -86 -20 -155 -47 -370 -141 -1006 -150 -1021 -3
-4 -19 -5 -37 -3 -18 2 -134 8 -258 14 -213 10 -290 14 -490 25 -47 3 -132 7
-190 10 -251 13 -315 18 -321 27 -4 6 -7 89 -8 186 -1 97 -4 178 -5 181 -2 3
-7 134 -10 291 -4 157 -9 305 -11 330 -2 25 -7 149 -10 275 -3 127 -8 257 -10
290 -3 33 -7 143 -10 245 -6 193 -21 583 -30 755 -2 55 -7 156 -10 225 -7 175
-14 307 -25 515 -27 494 -33 587 -55 851 -15 175 -17 184 -56 275 -130 299
-326 823 -422 1129 -156 495 -225 777 -303 1240 -93 551 -220 1094 -430 1840
-142 503 -326 1104 -345 1127 -14 17 -53 17 -67 0 -14 -16 -22 -126 -47 -647
-3 -58 -7 -141 -10 -185 -2 -44 -7 -129 -10 -190 -5 -104 -8 -147 -20 -360 -2
-49 -7 -137 -10 -195 -3 -58 -7 -143 -10 -190 -3 -47 -12 -213 -20 -370 -8
-157 -17 -323 -20 -370 -2 -47 -7 -137 -10 -200 -3 -63 -8 -149 -10 -190 -3
-41 -9 -163 -15 -270 -17 -342 -26 -512 -35 -655 -3 -44 -7 -129 -10 -190 -3
-60 -7 -146 -10 -190 -3 -44 -7 -129 -10 -190 -3 -60 -8 -146 -10 -190 -5 -82
-40 -736 -50 -945 -3 -63 -8 -142 -10 -175 -2 -33 -7 -114 -10 -180 -3 -66 -8
-156 -10 -200 -3 -44 -7 -127 -10 -185 -6 -104 -10 -180 -20 -355 -2 -49 -7
-137 -10 -195 -3 -58 -8 -141 -10 -185 -7 -107 -63 -1158 -70 -1310 -3 -66 -8
-140 -10 -165 -2 -25 -7 -103 -10 -175 -3 -71 -7 -155 -10 -185 -2 -30 -7
-113 -10 -185 -3 -71 -7 -155 -10 -185 -2 -30 -7 -109 -11 -175 -3 -66 -9
-174 -14 -240 -4 -66 -5 -123 -3 -128 2 -4 -2 -7 -9 -8 -45 -2 -519 2 -548 5
-19 2 -75 7 -125 11 -265 20 -510 71 -651 135 l-61 27 -46 239 c-38 192 -96
507 -132 709 -58 325 -174 1059 -214 1350 -6 44 -20 145 -31 225 -33 243 -88
742 -110 985 -11 127 -22 250 -24 275 -3 25 -8 101 -11 170 -4 69 -9 136 -11
150 -3 14 -8 188 -11 388 -5 326 -2 471 22 982 17 356 26 1410 21 2400 -7
1299 -18 2136 -27 2144 -2 2 -23 6 -47 10 l-43 6 8 -732 c15 -1404 9 -3497
-13 -3938 -3 -63 -9 -185 -13 -270 -16 -314 -10 -806 14 -1105 2 -33 7 -98 10
-145 3 -47 8 -107 10 -135 3 -27 12 -129 20 -225 14 -156 38 -384 50 -480 3
-19 14 -114 25 -210 23 -191 87 -680 95 -720 3 -14 16 -99 30 -190 113 -758
322 -1906 354 -1944 17 -20 107 -64 176 -86 22 -7 43 -18 47 -24 7 -10 12
-216 5 -216 -2 0 -23 10 -48 22 -67 33 -130 29 -206 -11 -84 -45 -177 -124
-443 -376 -373 -352 -479 -441 -750 -624 -517 -348 -865 -722 -888 -954 -10
-98 32 -173 147 -261 121 -93 269 -160 467 -211 250 -65 519 -72 789 -21 148
28 583 121 850 181 88 20 207 47 265 60 58 13 233 54 390 90 157 36 317 73
355 82 143 32 250 116 298 233 19 48 22 73 22 210 0 296 -33 722 -80 1035 -42
281 -41 275 -86 275 l-31 0 7 118 c4 64 9 128 10 142 2 14 4 46 4 73 l1 47
110 0 c136 0 150 9 151 98 0 31 2 75 4 97 3 22 11 168 20 325 8 157 17 323 20
370 11 193 15 270 20 370 3 58 7 139 10 180 7 127 15 261 20 365 9 176 15 288
20 370 3 44 7 130 10 190 3 61 7 144 10 185 3 41 7 122 10 180 3 58 7 139 10
180 3 41 7 129 10 195 3 66 7 152 10 190 5 75 11 193 20 375 3 63 7 147 10
185 2 39 7 120 10 180 8 164 15 292 20 370 2 39 7 124 10 190 3 66 8 152 10
190 2 39 7 117 10 175 11 223 16 298 20 370 3 41 7 134 10 205 4 72 8 155 10
185 2 30 7 118 10 195 3 77 8 160 10 185 2 25 7 101 10 170 3 69 8 159 10 200
2 41 7 127 10 190 3 63 8 149 10 190 3 41 7 120 10 175 3 55 8 138 10 185 5
93 22 403 30 570 5 100 9 168 20 388 3 53 7 126 10 162 2 36 7 124 10 195 3
72 8 153 10 180 3 28 7 113 10 190 3 77 8 167 10 200 2 33 7 114 10 180 3 66
8 153 11 194 l7 75 49 -160 c286 -926 539 -1940 628 -2516 103 -669 369 -1540
723 -2368 40 -94 46 -116 52 -210 4 -58 8 -112 10 -120 1 -8 6 -71 10 -140 4
-69 9 -132 10 -140 1 -8 6 -82 10 -165 3 -82 8 -161 10 -175 2 -14 6 -88 9
-165 4 -77 9 -180 11 -230 5 -84 28 -605 40 -915 3 -74 8 -175 10 -225 2 -49
7 -175 10 -280 3 -104 7 -226 10 -270 2 -44 7 -177 10 -295 3 -118 7 -251 10
-295 3 -44 8 -192 11 -330 4 -137 8 -270 9 -295 2 -25 3 -84 4 -132 1 -62 5
-91 16 -102 9 -9 45 -17 95 -22 l80 -7 0 -236 0 -236 -30 45 c-35 53 -61 66
-89 42 -16 -14 -20 -35 -26 -112 -3 -52 -12 -180 -20 -285 -16 -211 -22 -288
-30 -420 -4 -49 -8 -106 -10 -125 -2 -19 -7 -80 -10 -135 -17 -271 -54 -505
-140 -875 -54 -232 -57 -248 -47 -311 22 -146 120 -267 254 -312 110 -38 420
-62 788 -62 348 0 655 23 773 59 169 51 284 216 271 391 -10 127 -231 952
-340 1265 -128 372 -303 721 -423 849 l-32 34 16 146 c9 80 18 165 22 189 l5
43 147 -7 c171 -9 190 -9 202 3 10 10 21 63 43 213 9 58 23 150 31 205 34 225
90 625 105 750 5 44 16 134 24 200 18 143 51 435 66 595 6 63 13 131 15 150
17 149 51 565 60 735 4 66 8 134 10 150 26 208 27 1439 1 1605 -2 14 -7 63
-10 110 -4 47 -9 112 -11 145 -3 33 -12 157 -20 275 -8 118 -17 242 -20 275
-9 115 -17 244 -35 520 -6 88 -13 180 -15 205 -2 25 -7 99 -10 165 -3 66 -8
140 -10 165 -3 25 -7 86 -10 135 -9 147 -54 884 -60 965 -5 71 -7 108 -20 330
-3 52 -8 129 -10 170 -3 41 -7 118 -10 170 -3 52 -7 124 -10 160 -2 36 -7 110
-10 165 -3 55 -17 289 -30 520 -32 552 -32 557 -50 865 -8 146 -17 297 -20
335 -2 39 -7 133 -11 210 -4 77 -8 147 -10 155 -1 8 -3 25 -3 37 -1 14 -11 24
-32 32 -51 18 -68 14 -64 -11z m-4630 -10572 c53 -13 221 -35 370 -50 28 -3
131 -8 230 -12 99 -4 180 -7 181 -8 0 0 -6 -96 -14 -213 l-15 -211 -231 -98
c-127 -53 -238 -99 -246 -101 -8 -2 -21 6 -29 19 -38 63 -191 257 -260 330
l-78 83 -6 138 c-7 158 -14 149 98 123z m3765 -90 c96 -4 184 -9 195 -11 11
-2 92 -7 180 -10 88 -4 162 -9 164 -11 4 -3 -15 -214 -24 -271 -2 -12 -9 -83
-16 -158 -7 -74 -15 -135 -18 -135 -3 0 -23 32 -44 70 -49 90 -80 126 -120
139 -29 9 -181 32 -324 47 -68 8 -114 -9 -157 -57 l-36 -39 0 218 c0 203 3
237 19 228 3 -2 85 -7 181 -10z m-4038 -157 c50 -26 201 -170 281 -269 33 -41
94 -123 136 -182 54 -76 82 -108 96 -108 19 0 86 27 448 180 78 34 146 62 151
63 18 4 74 -433 95 -738 19 -263 21 -307 22 -445 2 -120 -1 -141 -21 -187 -24
-57 -91 -126 -143 -148 -82 -34 -1674 -389 -2000 -446 -422 -73 -913 34 -1151
252 -68 62 -78 78 -78 133 0 188 362 572 847 898 273 184 379 272 735 608 266
252 344 320 424 372 68 43 99 47 158 17z m4181 -298 c149 -19 157 -23 194 -91
11 -19 41 -74 67 -123 77 -141 109 -139 165 13 l34 92 49 -77 c146 -226 304
-619 438 -1090 73 -258 210 -816 210 -857 0 -99 -68 -206 -160 -253 -46 -23
-173 -45 -350 -59 -36 -3 -95 -8 -131 -11 -91 -8 -525 -8 -629 0 -188 14 -378
36 -427 50 -108 31 -190 131 -200 242 -3 46 7 105 50 293 101 430 116 540 162
1195 3 39 10 131 15 205 6 74 13 181 17 238 3 56 9 104 12 107 4 2 29 -33 56
-78 45 -73 54 -82 83 -85 39 -4 42 1 73 158 14 73 29 120 41 132 22 22 53 22
231 -1z"/>
<path d="M38108 2679 c-44 -25 -24 -53 178 -251 115 -113 205 -194 218 -196
28 -4 60 30 52 56 -8 24 -401 402 -418 402 -7 0 -21 -5 -30 -11z"/>
<path d="M39470 1874 c-358 -132 -814 -263 -1154 -333 -366 -75 -600 -101
-861 -96 -252 5 -422 43 -573 126 -60 34 -83 34 -101 1 -16 -31 9 -63 79 -98
244 -125 595 -157 1075 -98 276 34 616 108 995 219 192 56 573 183 695 232 62
25 70 31 73 58 4 29 -18 56 -42 54 -6 0 -90 -30 -186 -65z"/>
<path d="M42690 1770 c-20 -38 1 -70 47 -71 21 -1 58 -3 83 -4 25 -2 155 -6
290 -9 135 -4 263 -9 286 -12 54 -7 90 20 80 59 -4 17 -15 28 -29 31 -32 7
-193 14 -488 22 l-257 7 -12 -23z"/>
<path d="M42426 981 c-20 -22 -14 -56 13 -70 29 -16 176 -51 279 -66 141 -22
423 -30 577 -16 165 15 413 58 443 77 26 17 29 56 6 75 -13 11 -30 10 -97 -4
-165 -34 -297 -48 -502 -54 -240 -6 -428 11 -586 52 -114 30 -112 30 -133 6z"/>
<path d="M37409 9438 c-35 -46 -129 -162 -208 -258 -968 -1176 -2044 -2189
-3236 -3047 -553 -397 -1099 -740 -1713 -1075 -213 -116 -708 -363 -921 -459
-172 -78 -202 -100 -181 -138 7 -14 21 -21 39 -21 82 0 1027 476 1536 772
1514 884 2921 2046 4126 3408 306 346 679 802 690 843 7 28 -16 57 -46 57 -16
0 -40 -23 -86 -82z"/>
<path d="M42348 7989 c-22 -12 -23 -52 -2 -73 13 -14 49 -16 243 -16 208 0
229 2 244 18 22 24 21 45 -1 65 -16 15 -48 17 -243 17 -133 0 -231 -5 -241
-11z"/>
<path d="M38362 7728 c-21 -21 -13 -51 42 -143 104 -175 280 -503 396 -740
304 -617 467 -1089 501 -1443 10 -112 18 -132 53 -132 36 0 46 20 46 89 0 259
-154 759 -395 1286 -156 339 -469 929 -567 1068 -20 29 -55 36 -76 15z"/>
<path d="M37109 7531 c-9 -3 -115 -109 -236 -236 -746 -781 -1632 -1544 -2518
-2165 -1001 -703 -2107 -1305 -3220 -1751 -130 -53 -210 -90 -216 -102 -12
-22 13 -67 37 -67 15 0 167 58 369 142 1989 825 3791 2043 5381 3636 335 335
466 478 462 504 -4 26 -37 48 -59 39z"/>
<path d="M29981 4639 c-50 -15 -135 -72 -160 -108 -45 -63 -65 -123 -64 -196
0 -95 29 -160 99 -224 175 -160 443 -84 509 144 42 142 -26 295 -159 360 -60
29 -169 41 -225 24z"/>
</g>
</svg>
